<?xml version="1.0" encoding="utf-8"?>
<!-- Generator: Adobe Illustrator 24.0.0, SVG Export Plug-In . SVG Version: 6.00 Build 0)  -->
<svg version="1.1" xmlns="http://www.w3.org/2000/svg" xmlns:xlink="http://www.w3.org/1999/xlink" x="0px" y="0px"
	 viewBox="0 0 1920 4039" style="enable-background:new 0 0 1920 4039;" xml:space="preserve">
<style type="text/css">
	.st0{display:none;}
	.st1{
		fill:none;stroke:#FFFFFF;stroke-miterlimit:10;
		stroke-dasharray: 1000;
  	animation: dash 15s alternate-reverse infinite ease-in-out;		
	}

	@keyframes dash {
  		to {
    	stroke-dashoffset: 1000;
  		}	
	}
</style>
<g id="Camada_1" class="st0">
	<image style="display:inline;overflow:visible;" width="1920" height="4039" xlink:href="intro_portifolio.png" >
	</image>
</g>
<g id="Camada_2">
	<path class="st1" d="M541.4,2262.3c0,0-3.1-1.3-3.2-25.6c-0.1-24.2,0-514.6,0-514.6s0-24.9,24.4-25.3l788-0.4h7
		c0,0,25.8,1.5,25.8,24.4c0,23-3,515.6-3,515.6l-0.3,21.2c0,0,0,8.3-3,9.9"/>
	<path class="st1" d="M1344.5,2333.3l-41.3-52.7c0,0-1-1.5-6.8-1.6c-5.8-0.1-494.1-3.4-494.1-3.4l-185.8-1c0,0-3.4,0.5-5.4,2.5
		c-1.9,2-40.7,52-40.7,52"/>
	<polyline class="st1" points="556.4,1726.1 556.4,2234.9 1362.7,2236.9 	"/>
</g>
</svg>
