<?xml version="1.0" encoding="utf-8"?>
<!-- Generator: Adobe Illustrator 24.0.0, SVG Export Plug-In . SVG Version: 6.00 Build 0)  -->
<svg version="1.1" xmlns="http://www.w3.org/2000/svg" xmlns:xlink="http://www.w3.org/1999/xlink" x="0px" y="0px"
	 viewBox="0 0 1920 4039" style="enable-background:new 0 0 1920 4039;" xml:space="preserve">
<style type="text/css">
	.st0{display:none;}
	.st1{
		fill:none;stroke:#FFFFFF;stroke-miterlimit:10;
		stroke-dasharray: 1000;
  	animation: dash 15s alternate-reverse infinite ease-in-out;
	}

	@keyframes dash {
  	to {
    	stroke-dashoffset: 1000;
  	}
	}
</style>
<g id="Camada_1" class="st0">
	<image style="display:inline;overflow:visible;" width="1920" height="4039" xlink:href="intro_portifolio.png" >
	</image>
</g>
<g id="Camada_2">
	<polygon class="st1" points="555.9,2235.4 1362.7,2236 1365,1727.3 555.9,1725.9 	"/>
	<path class="st1" d="M1374.5,2267.4c0,0,4.3-1,4.3-16c0-15,2.4-168.9,2.4-168.9l1.8-220.3v-115.4c0,0-0.4-14.7-0.6-20.9
		c-0.1-6.2,1.2-27.3-20-27.9c-17.6-0.5-227.3-0.7-227.3-0.7l-319.6,0.1l-183.6,0.6l-68.6,0.7c0,0-13,0.3-17.5,7
		c-4.4,6.7-6.2,10.1-6.1,32.1c0.1,22.1,0,108.9,0,108.9v202.1v103.9v94.1c0,0,0,13.6,3.3,15.7c0,0,75.9-1,77-0.1s1.4,1.5,4,1.5
		c2.6,0,187.3,1,187.3,1l214.1,1.3l172.2,1.2h112.7H1374.5z"/>
	<path class="st1" d="M1374.7,2268c0,0,8.1-0.6,12.5,3.6c4.4,4.1,121.2,119.6,131.9,130.2c10.7,10.7,7.6,24.9-2.2,30.2
		c-9.8,5.3-304.4,8-304.4,8H761.8l-354.2-7.1c0,0-15.1,0.4-20-9.8c-4.9-10.2-6.7-18.7,6.7-28.9c13.3-10.2,132.9-122.7,136.4-126.3
		c3.6-3.5,7.1-5.4,12.4-5.5"/>
	<path class="st1" d="M572.9,2329.6c0,0,39.6-49.6,42-52.2c2.4-2.7,3.6-1.6,15.3-1.6s340.4,2.9,340.4,2.9l234.7,0.2
		c0,0,89.1,0.9,94.2,1.8s6.9,4.7,10.9,9.6s34.2,43.8,34.2,43.8"/>
	<path class="st1" d="M104.3,2270.7c0,0-43.6-60.4-57.8-136c-14.2-75.6-0.3-102.5,5.6-109c0,0,11.3-12.7,66.4-16.3"/>
	<path class="st1" d="M118.5,2012.9c0,0-36.4,1.5-56.3,11.6s28.7,13,46.5,13.9s120.9,0.9,167.1-6.8s51.3-10.1,54.8-16
		c3.6-5.9-41.5-16.9-100.7-13.3"/>
	<path class="st1" d="M332,2016.2c0,0,10.2,14.2,11.8,31.6c1.6,17.3,1.8,41.3,0,61.8c-1.8,20.4-7.3,57.3-11.8,73.8
		c-4.4,16.4-22,65.1-25.8,70.9s-14.7,14-49.1,19.1"/>
	<path class="st1" d="M1698.1,2368.4c0,0-33.5,4.1-78.5-5c-45-9.2-62.8-29-62.8-29s-0.3-4.1-2.7-6.8c-2.4-2.7-2.4-3.6-2.4-11
		c0-7.4,12.4-223.1,12.4-223.1s4.7-73.2,6.5-81.8c1.8-8.6,5.9-30.8,22.5-52.4c16.6-21.6,32.3-37.9,35.9-44.4
		c3.6-6.5,11.3-27.9,12.7-34.7c1.5-6.8,2.1-9.5-2.7-12.4c-4.7-3-4.7-8.9-0.3-11.6c0,0,2.7-46.2,4.4-60.1
		c1.8-13.9,7.7-14.5,15.4-14.5c7.7,0,52.7-0.9,58.4,0c5.6,0.9,11,4.4,11,12.4s-2.4,49.5-2.4,51.3c0,0,14.8-3,19.6-2.7
		c4.7,0.3,13.6,3.3,7.1,10.7c-6.5,7.4-22.8,20.1-22.8,20.1s1.4,5.1,3.4,10c2,4.9,0.9,9.1,0.9,9.1s37.1,32.2,44,34.7
		c6.9,2.4,22,9.1,27.1,11.8c5.1,2.7,32.2,0.1,30,16.7c-1.3,10-16.4,20.9-16.4,20.9s6.7,2.4,5.8,4.4c-0.9,2-3.1,1.3-11.1,2.2
		s-7.3,6.7-10.9,9.6c-3.6,2.9-7.3,3.3-18.4,0c-11.1-3.3-18.2-6.9-18.2-6.9s11.3,21.8,10.9,44.4c-0.4,22.7-13.8,201.3-13.8,201.3
		l-8.4,110.2C1754.2,2341.8,1751.7,2365.3,1698.1,2368.4z"/>
	<path class="st1" d="M1757.9,1959.6c0,0,37.2,8,60.5,16.9"/>
	<path class="st1" d="M1761.8,1938.1c0,0-27.9-21.8-32.6-25.6"/>
	<path class="st1" d="M1765.6,1985.8c0,0-21.6-41.3-29-57.3l25.2,19.3"/>
	<path class="st1" d="M1762.4,1958.5c-0.1-0.3-0.9-20.5,0-24.3"/>
	<path class="st1" d="M1638.8,1856.1c0,0,27.3,3.9,43,3.7"/>
	<path class="st1" d="M1610.7,2539.6c0,0,12-41.8,59.1-74.2c47.1-32.4,174.2,12.4,193.3,19.1c19.1,6.7,32.9,16,23.6,28
		c-9.3,12-54.7,86.7-82.7,98.2c-28,11.6-31.1,26.2-100.9,10.2C1633.3,2604.9,1608.9,2593.3,1610.7,2539.6z"/>
</g>
</svg>
